<?xml version="1.0" encoding="utf-8"?>
<!-- Generator: Adobe Illustrator 16.2.0, SVG Export Plug-In . SVG Version: 6.00 Build 0)  -->
<!DOCTYPE svg PUBLIC "-//W3C//DTD SVG 1.1//EN" "http://www.w3.org/Graphics/SVG/1.1/DTD/svg11.dtd">
<svg version="1.1" xmlns="http://www.w3.org/2000/svg" xmlns:xlink="http://www.w3.org/1999/xlink" x="0px" y="0px" width="2400px"
	 height="2400px" viewBox="0 0 2400 2400" enable-background="new 0 0 2400 2400" xml:space="preserve">
<g id="Layer_1" display="none">
	<g display="inline">
		<defs>
			<rect id="SVGID_1_" width="2400" height="2400"/>
		</defs>
		<clipPath id="SVGID_2_">
			<use xlink:href="#SVGID_1_"  overflow="visible"/>
		</clipPath>
		<path clip-path="url(#SVGID_2_)" d="M484.092,978.614c1.497-0.149,1.561-1.469,1.939-2.547
			c26.459-75.456,61.53-145.481,103.187-213.654c73.733-120.667,181.113-232.65,324.633-263.072
			c104.367-22.123,181.608,2.35,242.716,90.15c113.262,162.735,83.752,413.403-19.391,573.952
			c-80.813,125.792-220.946,257.075-376.728,270.948c-30.384,2.706-88.678-1.191-102.632-34.307
			c-4.519-10.726-4.116-34.021,10.645-35.69c19.82-2.241,41.972,4.025,62.043,3.072c28.768-1.366,62.877-14.918,89.092-26.85
			c166.638-75.844,309.327-269.558,324.159-453.451c7.778-96.428-16.466-222.354-100.055-281.76
			c-56.931-40.461-109.728-30.314-167.491,1.22C762.237,668.844,647.482,817,597.549,935.661
			c-52.269,124.212-46.207,247.837-7.023,374.792c27.422,88.846,59.856,176.324,87.728,265.095
			c29.31,93.347,60.678,195.182,73.577,292.239c6.782,51.027,15.201,147.153-36.558,178.1
			c-81.427,48.683-167.426-62.769-204.625-122.824c-81.042-130.836-113.672-289.415-116.566-442.152
			c-2.198-116.007,19.848-231.854,44.094-344.867c-47.621-116.258-100.581-232.555-115.906-358.931
			c-9.867-81.366-4.13-189.889,54.347-253.285c38.61-41.858,114.152-61.478,166.124-35.152
			c22.914,11.606,36.967,36.796,24.126,61.484c-8.381,16.114-18.447,1.273-27.492-5.145c-49.113-34.85-96.201-1.415-117.442,46.118
			c-34.348,76.866-13.961,189.47,10.905,267.315C446.101,899.965,462.267,940.889,484.092,978.614 M503.717,1314.546
			c-2.061,0.655-3.237,6.371-3.548,8.492c-1.301,8.856-1.264,18.889-2.086,27.898c-11.214,122.833-2.067,259.471,27.46,379.32
			c13.937,56.568,48.071,165.468,101.158,195.693c23.759,13.525,52.373,0.207,55.172-27.406
			c4.904-48.358-18.651-120.938-32.371-168.31c-21.628-74.678-45.915-148.665-70.445-222.406
			c-17.18-51.645-34.078-106.138-52.974-156.921c-3.067-8.24-11.582-31.032-18.459-35.509
			C506.293,1314.533,505.365,1314.021,503.717,1314.546"/>
		<path clip-path="url(#SVGID_2_)" d="M1961.693,1115.187c149.309,134.98,134.848,382.391,70.368,556.334
			c-87.157,235.119-287.568,408.352-542.983,425.529c-167.006,11.233-307.018-46.703-429.302-157.399
			c-91.716-83.024-182.458-214.43-224.623-331.099c-10.823-29.947-23.722-84.948,18.727-95.723
			c43.493-11.04,48.667,31.409,60.496,61.477c77.417,196.791,275.036,389.25,488.05,426.492
			c273.813,47.872,504.963-223.641,555.613-468.268c27.299-131.85,2.173-327.556-133.944-392.179
			c-91.341-43.365-176.795-4.025-250.039,53.174c-24.091,18.813-66.224,66.369-95.987,29.982
			c-15.698-19.193-8.466-40.001,5.996-57.005c19.002-22.342,49.965-49.734,73.561-67.37
			C1684.412,1004.364,1843.738,1008.551,1961.693,1115.187"/>
		<path clip-path="url(#SVGID_2_)" d="M1688.144,574.156c14.431,15.354-12.222,30.582-26.149,31.639
			c-42.65,3.238-66.537-53.841-70.362-88.551c-14.156-128.461,103.889-229.328,228.781-195.797
			c110.586,29.69,137.641,152.798,117.637,252.567c-37.876,188.902-230.599,314.116-418.252,253.944
			c-97.987-31.42-186.466-121.579-201.024-225.762c-13.443-96.222,50.312-189.187,150.313-195.296
			c38.625-2.36,97.939,12.312,90.403,62.418c-3.032,20.172-37.802,8.626-50.425,7.554c-32.466-2.757-74.113-0.524-97.429,25.501
			c-60.762,67.823,0.487,187.002,59.47,236.345c103.776,86.816,261.27,53.384,343.295-46.473
			c51.173-62.297,88.696-173.138,59.74-251.613c-34.52-93.551-154.442-93.885-206.876-15.463
			c-22.975,34.362-28.342,91.586-4.193,126.583C1670.653,562.741,1680.378,565.893,1688.144,574.156"/>
	</g>
</g>
<g id="Layer_1_copy_2">
	<g>
		<defs>
			<rect id="SVGID_3_" x="-15" y="21" width="2400" height="2400"/>
		</defs>
		<clipPath id="SVGID_4_">
			<use xlink:href="#SVGID_3_"  overflow="visible"/>
		</clipPath>
		<path clip-path="url(#SVGID_4_)" fill="#150425" d="M469.092,999.614c1.497-0.149,1.561-1.469,1.939-2.547
			c26.459-75.456,61.53-145.481,103.187-213.654c73.733-120.667,181.113-232.65,324.633-263.072
			c104.367-22.123,181.608,2.35,242.716,90.15c113.262,162.735,83.752,413.403-19.391,573.952
			c-80.813,125.792-220.946,257.075-376.728,270.948c-30.384,2.706-88.678-1.191-102.632-34.307
			c-4.519-10.726-4.116-34.021,10.645-35.69c19.82-2.241,41.972,4.025,62.043,3.072c28.768-1.366,62.877-14.918,89.092-26.85
			c166.638-75.844,309.327-269.558,324.159-453.451c7.778-96.428-16.466-222.354-100.055-281.76
			c-56.931-40.461-109.728-30.314-167.491,1.22C747.237,689.844,632.482,838,582.549,956.661
			c-52.269,124.212-46.207,247.837-7.023,374.792c27.422,88.846,59.856,176.324,87.728,265.095
			c29.31,93.347,60.678,195.182,73.577,292.239c6.782,51.027,15.201,147.153-36.558,178.1
			c-81.427,48.683-167.426-62.769-204.625-122.824c-81.042-130.836-113.672-289.415-116.566-442.152
			c-2.198-116.007,19.848-231.854,44.094-344.867c-47.621-116.258-100.581-232.555-115.906-358.931
			c-9.867-81.366-4.13-189.889,54.347-253.285c38.61-41.858,114.152-61.478,166.124-35.152
			c22.914,11.606,36.967,36.796,24.126,61.484c-8.381,16.114-18.447,1.273-27.492-5.145c-49.113-34.85-96.201-1.415-117.442,46.118
			c-34.348,76.866-13.961,189.47,10.905,267.315C431.101,920.965,447.267,961.889,469.092,999.614 M488.717,1335.546
			c-2.061,0.655-3.237,6.371-3.548,8.492c-1.301,8.856-1.264,18.889-2.086,27.898c-11.214,122.833-2.067,259.471,27.46,379.32
			c13.937,56.568,48.071,165.468,101.158,195.693c23.759,13.525,52.373,0.207,55.172-27.406
			c4.904-48.358-18.651-120.938-32.371-168.31c-21.628-74.678-45.915-148.665-70.445-222.406
			c-17.18-51.645-34.078-106.138-52.974-156.921c-3.067-8.24-11.582-31.032-18.459-35.509
			C491.293,1335.533,490.365,1335.021,488.717,1335.546"/>
		<path clip-path="url(#SVGID_4_)" fill="#150425" d="M1946.693,1136.187c149.309,134.98,134.848,382.391,70.368,556.334
			c-87.157,235.119-287.568,408.352-542.983,425.529c-167.006,11.233-307.018-46.703-429.302-157.399
			c-91.716-83.024-182.458-214.43-224.623-331.099c-10.823-29.947-23.722-84.948,18.727-95.723
			c43.493-11.04,48.667,31.409,60.496,61.477c77.417,196.791,275.036,389.25,488.05,426.492
			c273.813,47.872,504.963-223.641,555.613-468.268c27.299-131.85,2.173-327.556-133.944-392.179
			c-91.341-43.365-176.795-4.025-250.039,53.174c-24.091,18.813-66.224,66.369-95.987,29.982
			c-15.698-19.193-8.466-40.001,5.996-57.005c19.002-22.342,49.965-49.734,73.561-67.37
			C1669.412,1025.364,1828.738,1029.551,1946.693,1136.187"/>
		<path clip-path="url(#SVGID_4_)" fill="#4F2C6C" d="M1673.144,595.156c14.431,15.354-12.222,30.582-26.149,31.639
			c-42.65,3.238-66.537-53.841-70.362-88.551c-14.156-128.461,103.889-229.328,228.781-195.797
			c110.586,29.69,137.641,152.798,117.637,252.567c-37.876,188.902-230.599,314.116-418.252,253.944
			c-97.987-31.42-186.466-121.579-201.024-225.762c-13.443-96.222,50.312-189.187,150.313-195.296
			c38.625-2.36,97.939,12.312,90.403,62.418c-3.032,20.172-37.802,8.626-50.425,7.554c-32.466-2.757-74.113-0.524-97.429,25.501
			c-60.762,67.823,0.487,187.002,59.47,236.345c103.776,86.816,261.27,53.384,343.295-46.473
			c51.173-62.297,88.696-173.138,59.74-251.613c-34.52-93.551-154.442-93.885-206.876-15.463
			c-22.975,34.362-28.342,91.586-4.193,126.583C1655.653,583.741,1665.378,586.893,1673.144,595.156"/>
	</g>
</g>
<g id="Layer_1_copy">
	<g>
		<defs>
			<rect id="SVGID_5_" width="2400" height="2400"/>
		</defs>
		<clipPath id="SVGID_6_">
			<use xlink:href="#SVGID_5_"  overflow="visible"/>
		</clipPath>
		<path opacity="0.75" clip-path="url(#SVGID_6_)" fill="#4F2C6C" d="M484.092,978.614c1.497-0.149,1.561-1.469,1.939-2.547
			c26.459-75.456,61.53-145.481,103.187-213.654c73.733-120.667,181.113-232.65,324.633-263.072
			c104.367-22.123,181.608,2.35,242.716,90.15c113.262,162.735,83.752,413.403-19.391,573.952
			c-80.813,125.792-220.946,257.075-376.728,270.948c-30.384,2.706-88.678-1.191-102.632-34.307
			c-4.519-10.726-4.116-34.021,10.645-35.69c19.82-2.241,41.972,4.025,62.043,3.072c28.768-1.366,62.877-14.918,89.092-26.85
			c166.638-75.844,309.327-269.558,324.159-453.451c7.778-96.428-16.466-222.354-100.055-281.76
			c-56.931-40.461-109.728-30.314-167.491,1.22C762.237,668.844,647.482,817,597.549,935.661
			c-52.269,124.212-46.207,247.837-7.023,374.792c27.422,88.846,59.856,176.324,87.728,265.095
			c29.31,93.347,60.678,195.182,73.577,292.239c6.782,51.027,15.201,147.153-36.558,178.1
			c-81.427,48.683-167.426-62.769-204.625-122.824c-81.042-130.836-113.672-289.415-116.566-442.152
			c-2.198-116.007,19.848-231.854,44.094-344.867c-47.621-116.258-100.581-232.555-115.906-358.931
			c-9.867-81.366-4.13-189.889,54.347-253.285c38.61-41.858,114.152-61.478,166.124-35.152
			c22.914,11.606,36.967,36.796,24.126,61.484c-8.381,16.114-18.447,1.273-27.492-5.145c-49.113-34.85-96.201-1.415-117.442,46.118
			c-34.348,76.866-13.961,189.47,10.905,267.315C446.101,899.965,462.267,940.889,484.092,978.614 M503.717,1314.546
			c-2.061,0.655-3.237,6.371-3.548,8.492c-1.301,8.856-1.264,18.889-2.086,27.898c-11.214,122.833-2.067,259.471,27.46,379.32
			c13.937,56.568,48.071,165.468,101.158,195.693c23.759,13.525,52.373,0.207,55.172-27.406
			c4.904-48.358-18.651-120.938-32.371-168.31c-21.628-74.678-45.915-148.665-70.445-222.406
			c-17.18-51.645-34.078-106.138-52.974-156.921c-3.067-8.24-11.582-31.032-18.459-35.509
			C506.293,1314.533,505.365,1314.021,503.717,1314.546"/>
		<path opacity="0.75" clip-path="url(#SVGID_6_)" fill="#4F2C6C" d="M1961.693,1115.187
			c149.309,134.98,134.848,382.391,70.368,556.334c-87.157,235.119-287.568,408.352-542.983,425.529
			c-167.006,11.233-307.018-46.703-429.302-157.399c-91.716-83.024-182.458-214.43-224.623-331.099
			c-10.823-29.947-23.722-84.948,18.727-95.723c43.493-11.04,48.667,31.409,60.496,61.477
			c77.417,196.791,275.036,389.25,488.05,426.492c273.813,47.872,504.963-223.641,555.613-468.268
			c27.299-131.85,2.173-327.556-133.944-392.179c-91.341-43.365-176.795-4.025-250.039,53.174
			c-24.091,18.813-66.224,66.369-95.987,29.982c-15.698-19.193-8.466-40.001,5.996-57.005c19.002-22.342,49.965-49.734,73.561-67.37
			C1684.412,1004.364,1843.738,1008.551,1961.693,1115.187"/>
		<path clip-path="url(#SVGID_6_)" fill="#8A7EB5" d="M1688.144,574.156c14.431,15.354-12.222,30.582-26.149,31.639
			c-42.65,3.238-66.537-53.841-70.362-88.551c-14.156-128.461,103.889-229.328,228.781-195.797
			c110.586,29.69,137.641,152.798,117.637,252.567c-37.876,188.902-230.599,314.116-418.252,253.944
			c-97.987-31.42-186.466-121.579-201.024-225.762c-13.443-96.222,50.312-189.187,150.313-195.296
			c38.625-2.36,97.939,12.312,90.403,62.418c-3.032,20.172-37.802,8.626-50.425,7.554c-32.466-2.757-74.113-0.524-97.429,25.501
			c-60.762,67.823,0.487,187.002,59.47,236.345c103.776,86.816,261.27,53.384,343.295-46.473
			c51.173-62.297,88.696-173.138,59.74-251.613c-34.52-93.551-154.442-93.885-206.876-15.463
			c-22.975,34.362-28.342,91.586-4.193,126.583C1670.653,562.741,1680.378,565.893,1688.144,574.156"/>
	</g>
</g>
<g id="Layer_1_copy_3">
	<g>
		<defs>
			<rect id="SVGID_7_" width="2400" height="2400"/>
		</defs>
		<clipPath id="SVGID_8_">
			<use xlink:href="#SVGID_7_"  overflow="visible"/>
		</clipPath>
		<linearGradient id="SVGID_9_" gradientUnits="userSpaceOnUse" x1="318.374" y1="1267.2998" x2="1229.0469" y2="1267.2998">
			<stop  offset="0" style="stop-color:#4F2C6C"/>
			<stop  offset="1" style="stop-color:#657787;stop-opacity:0"/>
		</linearGradient>
		<path clip-path="url(#SVGID_8_)" fill="url(#SVGID_9_)" d="M484.092,978.614c1.497-0.149,1.561-1.469,1.939-2.547
			c26.459-75.456,61.53-145.481,103.187-213.654c73.733-120.667,181.113-232.65,324.633-263.072
			c104.367-22.123,181.608,2.35,242.716,90.15c113.262,162.735,83.752,413.403-19.391,573.952
			c-80.813,125.792-220.946,257.075-376.728,270.948c-30.384,2.706-88.678-1.191-102.632-34.307
			c-4.519-10.726-4.116-34.021,10.645-35.69c19.82-2.241,41.972,4.025,62.043,3.072c28.768-1.366,62.877-14.918,89.092-26.85
			c166.638-75.844,309.327-269.558,324.159-453.451c7.778-96.428-16.466-222.354-100.055-281.76
			c-56.931-40.461-109.728-30.314-167.491,1.22C762.237,668.844,647.482,817,597.549,935.661
			c-52.269,124.212-46.207,247.837-7.023,374.792c27.422,88.846,59.856,176.324,87.728,265.095
			c29.31,93.347,60.678,195.182,73.577,292.239c6.782,51.027,15.201,147.153-36.558,178.1
			c-81.427,48.683-167.426-62.769-204.625-122.824c-81.042-130.836-113.672-289.415-116.566-442.152
			c-2.198-116.007,19.848-231.854,44.094-344.867c-47.621-116.258-100.581-232.555-115.906-358.931
			c-9.867-81.366-4.13-189.889,54.347-253.285c38.61-41.858,114.152-61.478,166.124-35.152
			c22.914,11.606,36.967,36.796,24.126,61.484c-8.381,16.114-18.447,1.273-27.492-5.145c-49.113-34.85-96.201-1.415-117.442,46.118
			c-34.348,76.866-13.961,189.47,10.905,267.315C446.101,899.965,462.267,940.889,484.092,978.614 M503.717,1314.546
			c-2.061,0.655-3.237,6.371-3.548,8.492c-1.301,8.856-1.264,18.889-2.086,27.898c-11.214,122.833-2.067,259.471,27.46,379.32
			c13.937,56.568,48.071,165.468,101.158,195.693c23.759,13.525,52.373,0.207,55.172-27.406
			c4.904-48.358-18.651-120.938-32.371-168.31c-21.628-74.678-45.915-148.665-70.445-222.406
			c-17.18-51.645-34.078-106.138-52.974-156.921c-3.067-8.24-11.582-31.032-18.459-35.509
			C506.293,1314.533,505.365,1314.021,503.717,1314.546"/>
		<linearGradient id="SVGID_10_" gradientUnits="userSpaceOnUse" x1="824.4785" y1="1564.9355" x2="2078.4521" y2="1564.9355">
			<stop  offset="0" style="stop-color:#4F2C6C"/>
			<stop  offset="1" style="stop-color:#657787;stop-opacity:0"/>
		</linearGradient>
		<path clip-path="url(#SVGID_8_)" fill="url(#SVGID_10_)" d="M1961.693,1115.187c149.309,134.98,134.848,382.391,70.368,556.334
			c-87.157,235.119-287.568,408.352-542.983,425.529c-167.006,11.233-307.018-46.703-429.302-157.399
			c-91.716-83.024-182.458-214.43-224.623-331.099c-10.823-29.947-23.722-84.948,18.727-95.723
			c43.493-11.04,48.667,31.409,60.496,61.477c77.417,196.791,275.036,389.25,488.05,426.492
			c273.813,47.872,504.963-223.641,555.613-468.268c27.299-131.85,2.173-327.556-133.944-392.179
			c-91.341-43.365-176.795-4.025-250.039,53.174c-24.091,18.813-66.224,66.369-95.987,29.982
			c-15.698-19.193-8.466-40.001,5.996-57.005c19.002-22.342,49.965-49.734,73.561-67.37
			C1684.412,1004.364,1843.738,1008.551,1961.693,1115.187"/>
		<path clip-path="url(#SVGID_8_)" fill="#8A7EB5" d="M1688.144,574.156c14.431,15.354-12.222,30.582-26.149,31.639
			c-42.65,3.238-66.537-53.841-70.362-88.551c-14.156-128.461,103.889-229.328,228.781-195.797
			c110.586,29.69,137.641,152.798,117.637,252.567c-37.876,188.902-230.599,314.116-418.252,253.944
			c-97.987-31.42-186.466-121.579-201.024-225.762c-13.443-96.222,50.312-189.187,150.313-195.296
			c38.625-2.36,97.939,12.312,90.403,62.418c-3.032,20.172-37.802,8.626-50.425,7.554c-32.466-2.757-74.113-0.524-97.429,25.501
			c-60.762,67.823,0.487,187.002,59.47,236.345c103.776,86.816,261.27,53.384,343.295-46.473
			c51.173-62.297,88.696-173.138,59.74-251.613c-34.52-93.551-154.442-93.885-206.876-15.463
			c-22.975,34.362-28.342,91.586-4.193,126.583C1670.653,562.741,1680.378,565.893,1688.144,574.156"/>
	</g>
</g>
</svg>
