<?xml version="1.0" encoding="utf-8"?>
<!-- Generator: Adobe Illustrator 16.2.0, SVG Export Plug-In . SVG Version: 6.00 Build 0)  -->
<!DOCTYPE svg PUBLIC "-//W3C//DTD SVG 1.1//EN" "http://www.w3.org/Graphics/SVG/1.1/DTD/svg11.dtd">
<svg version="1.1" id="Layer_1" xmlns="http://www.w3.org/2000/svg" xmlns:xlink="http://www.w3.org/1999/xlink" x="0px" y="0px"
	 width="841.89px" height="224.424px" viewBox="0 0 841.89 224.424" enable-background="new 0 0 841.89 224.424"
	 xml:space="preserve">
<path fill-rule="evenodd" clip-rule="evenodd" fill="#4F2C6C" d="M422.018,205.919c-127.51,0-255.02,0-382.53-0.005
	c-3.726,0-7.49,0.252-11.167-0.18c-9.907-1.165-14.76-7.354-13.031-17.174c0.923-5.24,2.498-10.519,4.701-15.359
	C38.4,132.787,38.41,92.476,19.859,52.143c-0.171-0.374-0.242-0.796-0.399-1.175c-8.106-19.504-7.807-31.792,21.436-31.73
	c254.192,0.534,508.383,0.309,762.574,0.309c2.898,0,5.806-0.137,8.694,0.029c10.941,0.626,16.577,7.401,14.319,18.258
	c-1.237,5.976-3.665,11.771-6.082,17.426c-16.441,38.401-16.412,76.712,0.078,115.094c2.427,5.647,4.824,11.463,6.033,17.441
	c2.189,10.842-3.485,17.509-14.514,18.099c-2.889,0.153-5.796,0.027-8.694,0.027C676.209,205.919,549.113,205.919,422.018,205.919z"
	/>
</svg>
